<svg width="1051" height="1051" viewBox="0 0 1051 1051" fill="none" xmlns="http://www.w3.org/2000/svg">
<circle cx="525.5" cy="525.5" r="525.27" fill="#22427B"/>
<circle cx="525.501" cy="525.495" r="350.18" fill="#CE1F44"/>
<mask id="mask0" mask-type="alpha" maskUnits="userSpaceOnUse" x="175" y="175" width="701" height="701">
<path d="M175.321 175.315H875.681V525.495C875.681 718.894 718.9 875.675 525.501 875.675C332.102 875.675 175.321 718.894 175.321 525.495V175.315Z" fill="#C4C4C4"/>
</mask>
<g mask="url(#mask0)">
<path d="M175.321 399.433H203.336V707.591H175.321V399.433Z" fill="white"/>
<path d="M427.451 315.39H455.465V735.605H427.451V315.39Z" fill="white"/>
<path d="M595.537 315.39H623.552V735.605H595.537V315.39Z" fill="white"/>
<path d="M175.321 399.433V371.418H427.451V399.433H175.321Z" fill="white"/>
<path d="M455.465 343.404V315.39H595.537V343.404H455.465Z" fill="white"/>
<path d="M175.321 735.605V707.591H427.451V735.605H175.321Z" fill="white"/>
<path d="M371.422 427.447H399.436V539.505H371.422V427.447Z" fill="white"/>
<path d="M231.35 567.519H259.364V679.577H231.35V567.519Z" fill="white"/>
<path d="M231.35 427.447H259.364V539.505H231.35V427.447Z" fill="white"/>
<path d="M315.393 427.447H343.408V539.505H315.393V427.447Z" fill="white"/>
<path d="M231.35 539.505V511.49H343.408V539.505H231.35Z" fill="white"/>
<path d="M231.35 455.462V427.447H343.408V455.462H231.35Z" fill="white"/>
<path d="M287.379 567.519H315.393V679.577H287.379V567.519Z" fill="white"/>
<path d="M371.422 567.519H399.436V679.577H371.422V567.519Z" fill="white"/>
<path d="M287.379 679.577V651.562H399.436V679.577H287.379Z" fill="white"/>
<path d="M287.379 595.534V567.519H399.436V595.534H287.379Z" fill="white"/>
<path d="M875.681 399.433H847.667V707.591H875.681V399.433Z" fill="white"/>
<path d="M875.681 399.433V371.418H623.552V399.433H875.681Z" fill="white"/>
<path d="M875.681 735.605V707.591H623.552V735.605H875.681Z" fill="white"/>
<path d="M679.58 427.447H651.566V539.505H679.58V427.447Z" fill="white"/>
<path d="M819.652 567.519H791.638V679.577H819.652V567.519Z" fill="white"/>
<path d="M819.652 427.447H791.638V539.505H819.652V427.447Z" fill="white"/>
<path d="M735.609 427.447H707.595V539.505H735.609V427.447Z" fill="white"/>
<path d="M819.652 539.505V511.49H707.595V539.505H819.652Z" fill="white"/>
<path d="M819.652 455.462V427.447H707.595V455.462H819.652Z" fill="white"/>
<path d="M763.623 567.519H735.609V679.577H763.623V567.519Z" fill="white"/>
<path d="M679.58 567.519H651.566V679.577H679.58V567.519Z" fill="white"/>
<path d="M763.623 679.577V651.562H651.566V679.577H763.623Z" fill="white"/>
<path d="M763.623 595.534V567.519H651.566V595.534H763.623Z" fill="white"/>
<path d="M511.494 455.462H539.508V483.476H511.494V455.462Z" fill="white"/>
<path d="M511.494 539.505H539.508V567.519H511.494V539.505Z" fill="white"/>
<path d="M511.494 623.548H539.508V651.562H511.494V623.548Z" fill="white"/>
<path d="M511.494 455.462H539.508V483.476H511.494V455.462Z" fill="white"/>
</g>
<path d="M496.413 208.53C498.735 201.383 508.847 201.383 511.169 208.53C512.208 211.727 515.186 213.891 518.547 213.891C526.062 213.891 529.187 223.508 523.107 227.925C520.388 229.901 519.25 233.402 520.289 236.599C522.611 243.746 514.431 249.69 508.351 245.272C505.632 243.297 501.95 243.297 499.231 245.272C493.151 249.69 484.97 243.746 487.293 236.599C488.331 233.402 487.193 229.901 484.474 227.925C478.394 223.508 481.519 213.891 489.034 213.891C492.395 213.891 495.374 211.727 496.413 208.53Z" fill="white"/>
<path d="M81.0503 503.471C83.8832 494.752 96.2177 494.752 99.0506 503.471C100.317 507.37 103.951 510.01 108.051 510.01C117.218 510.01 121.03 521.741 113.613 527.129C110.296 529.539 108.908 533.81 110.175 537.71C113.008 546.428 103.029 553.678 95.6128 548.29C92.2961 545.88 87.8048 545.88 84.4881 548.29C77.0716 553.678 67.0927 546.428 69.9256 537.71C71.1924 533.81 69.8046 529.539 66.4878 527.129C59.0713 521.741 62.8829 510.01 72.0502 510.01C76.1499 510.01 79.7834 507.37 81.0503 503.471Z" fill="#EBAA66"/>
<path d="M951.951 503.472C954.784 494.753 967.118 494.753 969.951 503.472C971.218 507.371 974.851 510.011 978.951 510.011C988.118 510.011 991.93 521.742 984.513 527.13C981.197 529.54 979.809 533.811 981.076 537.711C983.909 546.429 973.93 553.679 966.513 548.291C963.196 545.881 958.705 545.881 955.388 548.291C947.972 553.679 937.993 546.429 940.826 537.711C942.093 533.811 940.705 529.54 937.388 527.13C929.972 521.742 933.783 510.011 942.951 510.011C947.05 510.011 950.684 507.371 951.951 503.472Z" fill="#EBAA66"/>
<path d="M553.283 254.345C554.955 249.201 562.234 249.201 563.906 254.345C564.653 256.646 566.797 258.204 569.217 258.204C574.626 258.204 576.875 265.127 572.499 268.306C570.542 269.728 569.723 272.249 570.47 274.55C572.142 279.695 566.253 283.973 561.877 280.793C559.92 279.371 557.269 279.371 555.312 280.793C550.936 283.973 545.047 279.695 546.719 274.55C547.466 272.249 546.647 269.728 544.69 268.306C540.314 265.127 542.563 258.204 547.972 258.204C550.392 258.204 552.536 256.646 553.283 254.345Z" fill="white"/>
<path d="M508.458 270.998C509.469 267.887 513.871 267.887 514.882 270.998C515.335 272.39 516.631 273.332 518.095 273.332C521.366 273.332 522.727 277.519 520.08 279.442C518.896 280.302 518.401 281.826 518.853 283.218C519.864 286.329 516.302 288.917 513.656 286.994C512.472 286.134 510.869 286.134 509.685 286.994C507.038 288.917 503.477 286.329 504.488 283.218C504.94 281.826 504.445 280.302 503.261 279.442C500.614 277.519 501.975 273.332 505.246 273.332C506.709 273.332 508.006 272.39 508.458 270.998Z" fill="white"/>
<path d="M324.041 915.936C322.021 918.759 319.564 920.833 316.669 922.157C313.786 923.461 310.638 923.897 307.225 923.463C303.831 923.042 300.458 921.77 297.106 919.648C291.577 916.149 288.383 911.604 287.523 906.015C286.663 900.425 288.346 894.368 292.574 887.844L293.913 885.778C296.566 881.683 299.597 878.557 303.006 876.398C306.447 874.232 310.055 873.17 313.831 873.213C317.619 873.236 321.285 874.37 324.829 876.613C329.934 879.844 333.169 883.781 334.535 888.422C335.913 893.045 335.295 897.834 332.682 902.79L322.569 896.388C324.14 893.795 324.679 891.559 324.184 889.681C323.69 887.804 322.2 886.078 319.715 884.505C317.192 882.908 314.735 882.675 312.345 883.806C309.955 884.937 307.398 887.541 304.675 891.618L302.759 894.574C299.871 899.032 298.365 902.571 298.243 905.192C298.14 907.824 299.465 910.013 302.22 911.756C304.551 913.232 306.686 913.814 308.626 913.504C310.565 913.194 312.342 911.877 313.956 909.553L324.041 915.936Z" fill="white"/>
<path d="M388.644 938.348C386.693 942.795 384.139 946.375 380.982 949.09C377.824 951.804 374.309 953.434 370.434 953.981C366.59 954.515 362.719 953.947 358.822 952.276C354.925 950.605 351.856 948.236 349.618 945.168C347.388 942.078 346.153 938.51 345.912 934.463C345.691 930.425 346.483 926.237 348.286 921.901L349.412 919.333C351.372 914.865 353.916 911.28 357.043 908.577C360.2 905.863 363.716 904.233 367.59 903.686C371.486 903.149 375.392 903.72 379.311 905.4C383.187 907.062 386.241 909.463 388.474 912.602C390.706 915.742 391.914 919.373 392.097 923.495C392.311 927.605 391.467 931.856 389.564 936.25L388.644 938.348ZM378.261 931.627C380.249 927.096 380.99 923.334 380.487 920.34C380.013 917.334 378.362 915.225 375.533 914.012C370.001 911.64 365.265 914.521 361.324 922.654L359.822 925.991C357.862 930.459 357.1 934.212 357.534 937.251C357.969 940.29 359.653 942.438 362.586 943.696C365.373 944.89 368.038 944.632 370.582 942.919C373.125 941.207 375.378 938.142 377.341 933.725L378.261 931.627Z" fill="white"/>
<path d="M447.406 979.646L435.82 976.78L426.286 942.505L418.691 972.542L407.039 969.66L419.244 921.388L430.896 924.27L440.398 958.537L447.993 928.5L459.611 931.374L447.406 979.646Z" fill="white"/>
<path d="M519.03 981.834C517.02 983.729 514.191 985.158 510.543 986.119C506.895 987.081 502.958 987.39 498.731 987.047C492.232 986.519 487.204 984.109 483.647 979.817C480.09 975.525 478.468 969.824 478.782 962.713L479.103 958.416C479.506 953.531 480.722 949.341 482.75 945.846C484.779 942.328 487.476 939.722 490.842 938.029C494.232 936.314 498.04 935.629 502.267 935.972C508.448 936.474 513.125 938.284 516.299 941.401C519.497 944.497 521.148 948.874 521.252 954.532L509.732 953.596C509.552 950.791 508.829 948.742 507.563 947.45C506.297 946.158 504.415 945.41 501.915 945.207C498.916 944.963 496.493 946.047 494.646 948.459C492.8 950.871 491.67 954.439 491.257 959.163L491.009 962.162C490.599 967.115 491.132 970.91 492.607 973.546C494.106 976.161 496.674 977.616 500.31 977.911C503.423 978.164 505.798 977.66 507.435 976.397L508.072 968.695L499.755 968.019L500.434 959.806L520.714 961.453L519.03 981.834Z" fill="white"/>
<path d="M565.889 969.042L559.41 969.537L560.791 987.06L548.823 987.974L544.911 938.337L564.45 936.844C570.337 936.395 575.043 937.35 578.568 939.71C582.093 942.07 584.043 945.637 584.419 950.41C584.692 953.864 584.213 956.782 582.982 959.162C581.775 961.541 579.738 963.549 576.871 965.185L588.813 984.405L588.853 984.917L576.033 985.896L565.889 969.042ZM558.682 960.298L566.252 959.72C568.525 959.546 570.184 958.825 571.227 957.556C572.291 956.263 572.739 954.549 572.571 952.412C572.403 950.276 571.692 948.65 570.437 947.534C569.181 946.395 567.428 945.911 565.178 946.083L557.608 946.662L558.682 960.298Z" fill="white"/>
<path d="M642.478 952.866L624.07 957.05L626.767 968.606L648.509 963.664L650.607 972.656L617.161 980.258L605.846 931.77L639.359 924.152L641.465 933.177L619.656 938.134L622.042 948.358L640.449 944.174L642.478 952.866Z" fill="white"/>
<path d="M696.197 942.95C695.55 941.318 694.461 940.273 692.93 939.814C691.42 939.347 689.015 939.189 685.716 939.341C682.416 939.492 679.66 939.47 677.449 939.274C670.263 938.656 665.649 935.771 663.607 930.622C662.59 928.057 662.439 925.512 663.155 922.987C663.883 920.432 665.404 918.084 667.718 915.943C670.024 913.78 672.889 912.037 676.313 910.713C679.651 909.422 682.874 908.86 685.981 909.027C689.11 909.186 691.845 910.084 694.186 911.72C696.519 913.336 698.244 915.553 699.362 918.371L688.198 922.688C687.45 920.802 686.286 919.566 684.704 918.98C683.144 918.385 681.376 918.471 679.398 919.235C677.399 920.008 675.992 921.066 675.175 922.408C674.371 923.721 674.239 925.056 674.776 926.412C675.247 927.599 676.314 928.433 677.976 928.915C679.63 929.375 682.268 929.503 685.891 929.3C689.505 929.076 692.579 929.158 695.112 929.547C701.273 930.489 705.358 933.492 707.367 938.557C708.972 942.605 708.702 946.376 706.556 949.87C704.41 953.364 700.668 956.143 695.331 958.207C691.568 959.663 687.89 960.315 684.299 960.164C680.72 959.983 677.692 959.028 675.216 957.297C672.752 955.536 670.915 953.13 669.705 950.079L680.932 945.737C681.915 948.216 683.28 949.803 685.026 950.496C686.786 951.16 689.111 950.933 692.003 949.815C693.853 949.099 695.154 948.144 695.906 946.949C696.671 945.724 696.768 944.391 696.197 942.95Z" fill="white"/>
<path d="M754.203 914.018C753.313 912.505 752.076 911.637 750.492 911.416C748.927 911.183 746.525 911.391 743.284 912.04C740.043 912.69 737.314 913.085 735.096 913.226C727.894 913.703 722.889 911.553 720.083 906.777C718.685 904.398 718.147 901.908 718.469 899.306C718.799 896.673 719.946 894.124 721.908 891.659C723.859 889.174 726.426 887.018 729.611 885.193C732.716 883.413 735.818 882.37 738.917 882.065C742.036 881.748 744.879 882.22 747.445 883.482C749.999 884.725 752.044 886.653 753.58 889.267L743.197 895.22C742.169 893.471 740.828 892.426 739.174 892.087C737.54 891.736 735.804 892.088 733.964 893.142C732.105 894.208 730.874 895.466 730.271 896.915C729.677 898.333 729.749 899.671 730.488 900.929C731.135 902.03 732.318 902.692 734.036 902.916C735.742 903.12 738.371 902.848 741.924 902.099C745.465 901.33 748.518 900.946 751.083 900.947C757.322 900.944 761.821 903.292 764.581 907.989C766.787 911.744 767.096 915.509 765.506 919.284C763.917 923.059 760.641 926.37 755.676 929.216C752.175 931.223 748.637 932.424 745.062 932.818C741.494 933.182 738.353 932.697 735.639 931.362C732.933 929.997 730.748 927.899 729.085 925.068L739.528 919.081C740.879 921.381 742.472 922.741 744.305 923.161C746.147 923.551 748.413 922.974 751.103 921.432C752.823 920.446 753.964 919.305 754.526 918.011C755.096 916.686 754.988 915.355 754.203 914.018Z" fill="white"/>
<path d="M423.325 120.104H432.408V74.8961H421.812V84.0909H415V68H440.733V120.104H449.815V127H423.325V120.104Z" fill="white"/>
<path d="M477.818 120.104H505.065V100.182H480.089V93.2857H505.065V74.8961H477.818V68H513.39V127H477.818V120.104Z" fill="white"/>
<path d="M539.123 120.104H566.37V100.182H541.394V93.2857H566.37V74.8961H539.123V68H574.695V127H539.123V120.104Z" fill="white"/>
<path d="M628.431 74.8961H605.726V89.4545H598.914V68H636V127H628.431V74.8961Z" fill="white"/>
</svg>
